<svg width="24" height="24" viewBox="0 0 24 24" fill="none" xmlns="http://www.w3.org/2000/svg">
<path d="M15 22.75H9C3.57 22.75 1.25 20.43 1.25 15V9C1.25 3.57 3.57 1.25 9 1.25H15C20.43 1.25 22.75 3.57 22.75 9V15C22.75 20.43 20.43 22.75 15 22.75ZM9 2.75C4.39 2.75 2.75 4.39 2.75 9V15C2.75 19.61 4.39 21.25 9 21.25H15C19.61 21.25 21.25 19.61 21.25 15V9C21.25 4.39 19.61 2.75 15 2.75H9Z" fill="url(#paint0_linear_1786_7262)"/>
<path d="M9 2.75C4.39 2.75 2.75 4.39 2.75 9V15C2.75 19.61 4.39 21.25 9 21.25H15C19.61 21.25 21.25 19.61 21.25 15V9C21.25 4.39 19.61 2.75 15 2.75H9Z" fill="url(#paint1_linear_1786_7262)"/>
<path d="M10.58 15.58C10.38 15.58 10.19 15.5 10.05 15.36L7.22 12.53C6.93 12.24 6.93 11.76 7.22 11.47C7.51 11.18 7.99 11.18 8.28 11.47L10.58 13.77L15.72 8.63001C16.01 8.34001 16.49 8.34001 16.78 8.63001C17.07 8.92001 17.07 9.40001 16.78 9.69001L11.11 15.36C10.97 15.5 10.78 15.58 10.58 15.58Z" fill="white"/>
<defs>
<linearGradient id="paint0_linear_1786_7262" x1="1.28938" y1="1.25" x2="24.8087" y2="3.74966" gradientUnits="userSpaceOnUse">
<stop stop-color="#B5C1D9"/>
<stop offset="0.38" stop-color="#858AFB"/>
<stop offset="0.65" stop-color="#C472FF"/>
<stop offset="1" stop-color="#D3BBE3"/>
</linearGradient>
<linearGradient id="paint1_linear_1786_7262" x1="1.28938" y1="1.25" x2="24.8087" y2="3.74966" gradientUnits="userSpaceOnUse">
<stop stop-color="#B5C1D9"/>
<stop offset="0.38" stop-color="#858AFB"/>
<stop offset="0.65" stop-color="#C472FF"/>
<stop offset="1" stop-color="#D3BBE3"/>
</linearGradient>
</defs>
</svg>
