<svg width="16" height="17" viewBox="0 0 16 17" fill="none" xmlns="http://www.w3.org/2000/svg">
<path d="M7.99992 1.83301C4.32659 1.83301 1.33325 4.82634 1.33325 8.49967C1.33325 12.173 4.32659 15.1663 7.99992 15.1663C11.6733 15.1663 14.6666 12.173 14.6666 8.49967C14.6666 4.82634 11.6733 1.83301 7.99992 1.83301ZM10.2399 10.033C10.4333 10.2263 10.4333 10.5463 10.2399 10.7397C10.1399 10.8397 10.0133 10.8863 9.88659 10.8863C9.75992 10.8863 9.63325 10.8397 9.53325 10.7397L7.99992 9.20634L6.46659 10.7397C6.36659 10.8397 6.23992 10.8863 6.11325 10.8863C5.98659 10.8863 5.85992 10.8397 5.75992 10.7397C5.56659 10.5463 5.56659 10.2263 5.75992 10.033L7.29325 8.49967L5.75992 6.96634C5.56659 6.77301 5.56659 6.45301 5.75992 6.25967C5.95325 6.06634 6.27325 6.06634 6.46659 6.25967L7.99992 7.79301L9.53325 6.25967C9.72659 6.06634 10.0466 6.06634 10.2399 6.25967C10.4333 6.45301 10.4333 6.77301 10.2399 6.96634L8.70659 8.49967L10.2399 10.033Z" fill="#E21824"/>
</svg>
