<svg width="23" height="22" viewBox="0 0 23 22" fill="none" xmlns="http://www.w3.org/2000/svg">
<path d="M9.92938 17.37C9.77938 17.37 9.63938 17.33 9.50938 17.24C9.29938 17.1 9.17938 16.87 9.17938 16.62C9.17938 16.47 9.16938 16.31 9.14938 16.15C9.05938 15.44 8.73938 14.82 8.19938 14.28C7.65938 13.74 6.98938 13.4 6.26938 13.31C6.14938 13.3 5.97938 13.29 5.81938 13.3C5.55938 13.32 5.31938 13.21 5.16938 13C5.01938 12.8 4.97938 12.53 5.05938 12.29C5.20938 11.88 5.42938 11.51 5.68938 11.21L7.22938 9.27004C9.87938 5.96004 15.2494 1.98004 19.1794 0.400044C20.0094 0.0800438 20.8994 0.270044 21.5094 0.870044C22.1394 1.50004 22.3294 2.40004 21.9994 3.22004C20.4194 7.16004 16.4494 12.52 13.1394 15.17L11.1694 16.75C10.7994 17.02 10.4994 17.19 10.1994 17.31C10.1194 17.35 10.0194 17.37 9.92938 17.37ZM7.03938 11.94C7.87938 12.16 8.62938 12.6 9.25938 13.23C9.88938 13.85 10.3094 14.57 10.5194 15.37L12.2094 14.01C15.3494 11.5 19.1194 6.41004 20.6094 2.67004C20.7594 2.30004 20.5494 2.04004 20.4494 1.95004C20.3794 1.88004 20.1194 1.66004 19.7194 1.81004C15.9994 3.31004 10.9094 7.08004 8.38938 10.22L7.03938 11.94Z" fill="white"/>
<path d="M3.57938 21.75C2.82938 21.75 2.10938 21.45 1.56938 20.91C0.949378 20.29 0.649378 19.43 0.749378 18.55L1.01938 16.09C1.27938 13.65 3.27938 11.84 5.75938 11.79C5.94938 11.78 6.19938 11.79 6.42938 11.81C7.51938 11.95 8.48938 12.44 9.26938 13.22C10.0394 13.99 10.4994 14.91 10.6394 15.94C10.6694 16.16 10.6894 16.4 10.6894 16.61C10.6894 17.93 10.1794 19.16 9.25938 20.09C8.48938 20.85 7.49938 21.32 6.37938 21.46L3.90938 21.73C3.79938 21.74 3.68938 21.75 3.57938 21.75ZM5.94938 13.3C5.90938 13.3 5.85938 13.3 5.81938 13.3C4.30938 13.33 2.70938 14.36 2.50938 16.26L2.23938 18.72C2.18938 19.14 2.33938 19.55 2.62938 19.85C2.91938 20.14 3.32938 20.29 3.73938 20.24L6.19938 19.97C6.96938 19.87 7.65938 19.55 8.17938 19.03C8.81938 18.39 9.17938 17.53 9.17938 16.61C9.17938 16.46 9.16938 16.3 9.14938 16.14C9.05938 15.43 8.73938 14.81 8.19938 14.27C7.65938 13.73 6.98938 13.39 6.26938 13.3C6.18938 13.3 6.06938 13.3 5.94938 13.3Z" fill="white"/>
<path d="M13.7394 14.22C13.3294 14.22 12.9894 13.88 12.9894 13.47C12.9894 11.27 11.1994 9.49004 9.00938 9.49004C8.59938 9.49004 8.25938 9.15004 8.25938 8.74004C8.25938 8.33004 8.58938 7.99004 8.99938 7.99004C12.0194 7.99004 14.4794 10.45 14.4794 13.47C14.4894 13.89 14.1494 14.22 13.7394 14.22Z" fill="white"/>
</svg>
