<svg width="21" height="20" viewBox="0 0 21 20" fill="none" xmlns="http://www.w3.org/2000/svg">
<path d="M13.8327 18.9583H7.16602C2.64102 18.9583 1.54102 17.8583 1.54102 13.3333V6.66663C1.54102 2.14163 2.64102 1.04163 7.16602 1.04163H13.8327C18.3577 1.04163 19.4577 2.14163 19.4577 6.66663V13.3333C19.4577 17.8583 18.3577 18.9583 13.8327 18.9583ZM7.16602 2.29163C3.32435 2.29163 2.79102 2.82496 2.79102 6.66663V13.3333C2.79102 17.175 3.32435 17.7083 7.16602 17.7083H13.8327C17.6743 17.7083 18.2077 17.175 18.2077 13.3333V6.66663C18.2077 2.82496 17.6743 2.29163 13.8327 2.29163H7.16602Z" fill="white"/>
<path d="M7.16602 8.95829C5.89935 8.95829 4.87435 7.93329 4.87435 6.66663C4.87435 5.39996 5.89935 4.37496 7.16602 4.37496C8.43268 4.37496 9.45768 5.39996 9.45768 6.66663C9.45768 7.93329 8.43268 8.95829 7.16602 8.95829ZM7.16602 5.62496C6.59102 5.62496 6.12435 6.09163 6.12435 6.66663C6.12435 7.24163 6.59102 7.70829 7.16602 7.70829C7.74102 7.70829 8.20768 7.24163 8.20768 6.66663C8.20768 6.09163 7.74102 5.62496 7.16602 5.62496Z" fill="white"/>
<path d="M2.72416 17.25C2.52416 17.25 2.32416 17.15 2.20749 16.975C2.01583 16.6916 2.09083 16.3 2.38249 16.1083L6.49083 13.35C7.39083 12.7416 8.63249 12.8166 9.44916 13.5083L9.72416 13.75C10.1408 14.1083 10.8492 14.1083 11.2575 13.75L14.7242 10.775C15.6075 10.0166 16.9992 10.0166 17.8908 10.775L19.2492 11.9416C19.5075 12.1666 19.5408 12.5583 19.3158 12.825C19.0908 13.0833 18.6992 13.1166 18.4325 12.8916L17.0742 11.725C16.6575 11.3666 15.9492 11.3666 15.5325 11.725L12.0658 14.7C11.1825 15.4583 9.79083 15.4583 8.89916 14.7L8.62416 14.4583C8.24083 14.1333 7.60749 14.1 7.18249 14.3916L3.07416 17.15C2.96583 17.2166 2.84083 17.25 2.72416 17.25Z" fill="white"/>
</svg>
