<svg width="132" height="132" viewBox="0 0 132 132" fill="none" xmlns="http://www.w3.org/2000/svg">
<path d="M0 30C0 13.4315 13.4315 0 30 0H102C118.569 0 132 13.4315 132 30V102C132 118.569 118.569 132 102 132H30C13.4315 132 0 118.569 0 102V30Z" fill="#195EE6"/>
<path d="M117 66C117 66.0823 117 66.1645 116.999 66.2453C116.942 75.4239 113.652 84.2575 107.721 91.14C106.701 92.3262 105.597 93.4577 104.439 94.5025C97.7241 100.572 89.106 103.941 80.1484 103.999C80.0696 104 79.9893 104 79.909 104C79.8287 104 79.7442 103.999 79.661 103.999C74.6519 103.863 70.6359 99.6618 70.6359 94.5011C70.6359 89.3403 74.7857 85.0007 79.909 85.0007C84.611 85.0007 88.906 83.2083 92.174 80.2513C92.7572 79.726 93.3052 79.1646 93.8179 78.5671C96.7028 75.2189 98.4538 70.8216 98.4538 66.0014C98.4538 61.1813 96.7028 56.7839 93.8179 53.4358C93.3052 52.8383 92.7572 52.2769 92.174 51.7516C88.906 48.7946 84.611 47.0022 79.909 47.0022C75.2069 47.0022 70.9119 48.7946 67.6439 51.7516C67.0607 52.2755 66.5099 52.8383 66 53.4358C63.1137 56.7839 61.3642 61.1813 61.3642 66.0014C61.3642 71.2474 57.2115 75.5018 52.091 75.5018C46.9706 75.5018 42.9518 71.3845 42.8207 66.2554C42.8207 66.1703 42.8193 66.0866 42.8193 66.0014C42.8193 65.9163 42.8193 65.8369 42.8207 65.7561C42.9489 60.6242 47.0495 56.5011 52.091 56.5011C56.7931 56.5011 61.0881 54.7087 64.3561 51.7516C64.9393 51.2263 65.4873 50.6649 66 50.0675C68.8849 46.7193 70.6359 42.322 70.6359 37.5018C70.6359 32.3367 74.659 28.1328 79.6695 28.0014C79.7484 28 79.8287 28 79.909 28C79.9893 28 80.0696 28 80.1484 28.0014C89.106 28.0577 97.7227 31.4275 104.439 37.4975C105.597 38.5423 106.701 39.6738 107.721 40.8601C110.713 44.3309 113.033 48.2996 114.605 52.5584C116.149 56.7421 116.97 61.2058 116.997 65.7547C116.999 65.8355 116.999 65.9177 116.999 66H117Z" fill="white"/>
<path d="M89.1821 66C89.1821 66.0823 89.1821 66.1645 89.1807 66.2453C89.0525 71.3772 84.9505 75.5004 79.9104 75.5004C75.2055 75.5004 70.9134 77.2928 67.6453 80.2498C67.0621 80.7737 66.5113 81.3365 66.0014 81.934C63.1151 85.2821 61.3656 89.6795 61.3656 94.4996C61.3656 99.6633 57.3411 103.867 52.3319 103.997C52.253 103.999 52.1727 103.999 52.0924 103.999C52.0122 103.999 51.9319 103.999 51.853 103.997C42.8996 103.939 34.2858 100.575 27.5736 94.5097C26.4058 93.4591 25.2902 92.3161 24.2647 91.1198C18.3427 84.2416 15.0578 75.4181 15.0014 66.2453C15 66.1645 15 66.0823 15 66C15 65.9177 15 65.8355 15.0014 65.7547C15.0563 56.5819 18.3413 47.7569 24.2618 40.8803C25.2873 39.6839 26.403 38.5409 27.5707 37.4903C34.2858 31.4246 42.8982 28.0592 51.8516 28.0014C51.9305 28 52.0107 28 52.091 28C52.1713 28 52.2558 28.0014 52.339 28.0014C57.3467 28.1371 61.3642 32.3382 61.3642 37.4989C61.3642 42.6597 57.2115 46.9993 52.091 46.9993C47.3862 46.9993 43.094 48.7917 39.826 51.7487C39.2428 52.2726 38.692 52.8354 38.1821 53.4329C35.2958 56.7811 33.5462 61.1784 33.5462 65.9986C33.5462 70.8187 35.2958 75.2161 38.1821 78.5642C38.6934 79.1617 39.2428 79.726 39.826 80.2484C43.094 83.2054 47.3862 84.9978 52.091 84.9978C56.7959 84.9978 61.0881 83.2054 64.3561 80.2484C64.9393 79.7231 65.4873 79.1617 66 78.5642C68.8849 75.2161 70.6358 70.8187 70.6358 65.9986C70.6358 60.7526 74.7857 56.4982 79.909 56.4982C85.0322 56.4982 89.0482 60.6156 89.1793 65.7446C89.1793 65.8297 89.1807 65.9134 89.1807 65.9986L89.1821 66Z" fill="url(#paint0_linear_2035_6337)"/>
<path d="M89.1821 66C89.1821 66.0823 89.1821 66.1645 89.1807 66.2453C89.0525 71.3772 84.9505 75.5004 79.9104 75.5004C75.2055 75.5004 70.9134 77.2928 67.6453 80.2498C67.0621 80.7737 66.5113 81.3365 66.0014 81.934C63.1151 85.2821 61.3656 89.6795 61.3656 94.4996C61.3656 99.6633 57.3411 103.867 52.3319 103.997C52.253 103.999 52.1727 103.999 52.0924 103.999C52.0122 103.999 51.9319 103.999 51.853 103.997C42.8996 103.939 34.2858 100.575 27.5736 94.5097C26.4058 93.4591 25.2902 92.3161 24.2647 91.1198C18.3427 84.2416 15.0578 75.4181 15.0014 66.2453C15 66.1645 15 66.0823 15 66C15 65.9177 15 65.8355 15.0014 65.7547C15.0563 56.5819 18.3413 47.7569 24.2618 40.8803C25.2873 39.6839 26.403 38.5409 27.5707 37.4903C34.2858 31.4246 42.8982 28.0592 51.8516 28.0014C51.9305 28 52.0107 28 52.091 28C52.1713 28 52.2558 28.0014 52.339 28.0014C57.3467 28.1371 61.3642 32.3382 61.3642 37.4989C61.3642 42.6597 57.2115 46.9993 52.091 46.9993C47.3862 46.9993 43.094 48.7917 39.826 51.7487C39.2428 52.2726 38.692 52.8354 38.1821 53.4329C35.2958 56.7811 33.5462 61.1784 33.5462 65.9986C33.5462 70.8187 35.2958 75.2161 38.1821 78.5642C38.6934 79.1617 39.2428 79.726 39.826 80.2484C43.094 83.2054 47.3862 84.9978 52.091 84.9978C56.7959 84.9978 61.0881 83.2054 64.3561 80.2484C64.9393 79.7231 65.4873 79.1617 66 78.5642C68.8849 75.2161 70.6358 70.8187 70.6358 65.9986C70.6358 60.7526 74.7857 56.4982 79.909 56.4982C85.0322 56.4982 89.0482 60.6156 89.1793 65.7446C89.1793 65.8297 89.1807 65.9134 89.1807 65.9986L89.1821 66Z" fill="#538DFF"/>
<defs>
<linearGradient id="paint0_linear_2035_6337" x1="51.7869" y1="44.4667" x2="86.3338" y2="71.9968" gradientUnits="userSpaceOnUse">
<stop stop-color="#195EE6"/>
<stop offset="1" stop-color="#75A4FF"/>
</linearGradient>
</defs>
</svg>
