<svg width="24" height="24" viewBox="0 0 24 24" fill="none" xmlns="http://www.w3.org/2000/svg">
<path d="M8.39014 18.49V8.32998C8.39014 7.92998 8.51014 7.53998 8.73014 7.20998L11.4601 3.14998C11.8901 2.49998 12.9601 2.03998 13.8701 2.37998C14.8501 2.70998 15.5001 3.80997 15.2901 4.78997L14.7701 8.05998C14.7301 8.35998 14.8101 8.62998 14.9801 8.83998C15.1501 9.02998 15.4001 9.14997 15.6701 9.14997H19.7801C20.5701 9.14997 21.2501 9.46997 21.6501 10.03C22.0301 10.57 22.1001 11.27 21.8501 11.98L19.3901 19.47C19.0801 20.71 17.7301 21.72 16.3901 21.72H12.4901C11.8201 21.72 10.8801 21.49 10.4501 21.06L9.17014 20.07C8.68014 19.7 8.39014 19.11 8.39014 18.49Z" fill="white"/>
<path d="M5.21 6.37988H4.18C2.63 6.37988 2 6.97988 2 8.45988V18.5199C2 19.9999 2.63 20.5999 4.18 20.5999H5.21C6.76 20.5999 7.39 19.9999 7.39 18.5199V8.45988C7.39 6.97988 6.76 6.37988 5.21 6.37988Z" fill="white"/>
</svg>
