<svg width="16" height="18" viewBox="0 0 16 18" fill="none" xmlns="http://www.w3.org/2000/svg">
<path fill-rule="evenodd" clip-rule="evenodd" d="M6.75311 15.7663C7.45637 16.5794 8.6763 16.5786 9.37382 15.7606C11.6121 13.1357 14.7454 8.50037 14.0799 5.55999C13.3399 2.29332 10.4932 0.833321 8.00656 0.833321H7.99989C5.51322 0.833321 2.66656 2.29332 1.92656 5.55332C1.25502 8.49606 4.48229 13.1409 6.75311 15.7663ZM5.41998 6.86667C5.41998 8.29334 6.57998 9.44667 7.99998 9.44667C9.41998 9.44667 10.58 8.3 10.58 6.87334C10.58 5.44667 9.41998 4.29334 7.99998 4.29334C6.57998 4.29334 5.41998 5.44001 5.41998 6.86667Z" fill="#195EE6"/>
</svg>
