<svg width="151" height="30" viewBox="0 0 151 30" fill="none" xmlns="http://www.w3.org/2000/svg">
<path d="M4.73065 20.5928L19 10.5L21 9.0911L20.9929 0L0 15.2063L4.73065 20.5928Z" fill="#195EE6"/>
<path d="M9.13347 25.7111L15 21.3877L18.113 18.6416L19 10.5L4.73065 20.5928L9.13347 25.7111Z" fill="#195EE6" fill-opacity="0.8"/>
<path d="M12.7278 30L15 28V21.3877L9.13347 25.7111L12.7278 30Z" fill="#195EE6" fill-opacity="0.6"/>
<path d="M51.5133 16.224C51.4653 17.28 51.2493 18.304 50.8653 19.296C50.4813 20.272 49.9213 21.152 49.1853 21.936C48.4493 22.704 47.5213 23.312 46.4013 23.76C45.2813 24.192 43.9693 24.408 42.4653 24.408C41.0573 24.408 39.7373 24.208 38.5053 23.808C37.2733 23.392 36.1853 22.792 35.2413 22.008C34.2973 21.208 33.5533 20.224 33.0093 19.056C32.4813 17.888 32.2173 16.536 32.2173 15C32.2173 13.464 32.4813 12.112 33.0093 10.944C33.5533 9.776 34.3053 8.8 35.2653 8.016C36.2413 7.216 37.3613 6.616 38.6253 6.216C39.9053 5.8 41.2813 5.592 42.7533 5.592C44.7853 5.592 46.5293 5.896 47.9853 6.504C49.4573 7.112 50.6413 7.952 51.5373 9.024C52.4333 10.096 53.0093 11.328 53.2653 12.72H47.6493C47.5053 12.192 47.2013 11.744 46.7373 11.376C46.2893 10.992 45.7293 10.704 45.0573 10.512C44.3853 10.304 43.6333 10.2 42.8013 10.2C41.7773 10.2 40.8893 10.376 40.1373 10.728C39.4013 11.08 38.8333 11.608 38.4333 12.312C38.0333 13.016 37.8333 13.912 37.8333 15C37.8333 16.088 38.0493 17 38.4813 17.736C38.9293 18.472 39.5613 19.024 40.3773 19.392C41.2093 19.76 42.1853 19.944 43.3053 19.944C44.3933 19.944 45.3533 19.8 46.1853 19.512C47.0333 19.224 47.7133 18.8 48.2253 18.24C48.7373 17.68 49.0413 16.984 49.1373 16.152L51.5133 16.224ZM43.6413 17.904V14.424H53.4333V24H49.5213L48.7053 16.992L49.7373 17.904H43.6413ZM59.8348 13.776H66.1228C66.8268 13.776 67.3708 13.616 67.7548 13.296C68.1548 12.976 68.3548 12.512 68.3548 11.904C68.3548 11.296 68.1548 10.832 67.7548 10.512C67.3708 10.192 66.8268 10.032 66.1228 10.032H59.0428L61.5628 7.44V24H55.9708V6H66.9628C68.3548 6 69.5788 6.248 70.6348 6.744C71.6908 7.24 72.5148 7.928 73.1068 8.808C73.6988 9.688 73.9948 10.72 73.9948 11.904C73.9948 13.056 73.6988 14.08 73.1068 14.976C72.5148 15.856 71.6908 16.544 70.6348 17.04C69.5788 17.52 68.3548 17.76 66.9628 17.76H59.8348V13.776ZM62.2348 15.576H68.4508L74.6428 24H68.2348L62.2348 15.576ZM76.4495 6H82.0415V24H76.4495V6ZM101.585 20.016L99.9768 20.352V6H105.401V24H98.3928L88.7208 9.648L90.3048 9.312V24H84.9048V6H92.1288L101.585 20.016ZM112.154 20.76V16.296H124.49V20.76H112.154ZM122.114 6L130.178 24H124.202L117.674 8.424H119.186L112.634 24H106.682L114.722 6H122.114ZM135.328 13.776H141.616C142.32 13.776 142.864 13.616 143.248 13.296C143.648 12.976 143.848 12.512 143.848 11.904C143.848 11.296 143.648 10.832 143.248 10.512C142.864 10.192 142.32 10.032 141.616 10.032H134.536L137.056 7.44V24H131.464V6H142.456C143.848 6 145.072 6.248 146.128 6.744C147.184 7.24 148.008 7.928 148.6 8.808C149.192 9.688 149.488 10.72 149.488 11.904C149.488 13.056 149.192 14.08 148.6 14.976C148.008 15.856 147.184 16.544 146.128 17.04C145.072 17.52 143.848 17.76 142.456 17.76H135.328V13.776ZM137.728 15.576H143.944L150.136 24H143.728L137.728 15.576Z" fill="white"/>
</svg>
