<svg width="155" height="30" viewBox="0 0 155 30" fill="none" xmlns="http://www.w3.org/2000/svg">
<g clip-path="url(#clip0_1140_4504)">
<path d="M58.7685 8.49604C66.2059 8.49604 69.1751 11.4201 69.1448 16.4458C69.1149 21.502 66.2059 24.4261 58.7685 24.4261C55.1101 24.4261 52.7108 23.6951 51.2412 22.3853V23.4514C51.2412 23.9387 50.9712 24.2129 50.4914 24.2129H49.0521C48.5723 24.2129 48.3023 23.9387 48.3023 23.4514V3.65306C48.3023 3.16573 48.5723 2.8916 49.0521 2.8916H50.4914C50.9712 2.8916 51.2412 3.16573 51.2412 3.65306V10.5368C52.7108 9.22706 55.1101 8.49604 58.7685 8.49604ZM58.7685 21.7457C63.7468 21.7457 66.2059 20.4359 66.2059 16.4458C66.2059 12.4861 63.7468 11.1764 58.7685 11.1764C53.7904 11.1764 51.3313 12.4861 51.3313 16.4458C51.3313 20.4359 53.7904 21.7457 58.7685 21.7457Z" fill="white"/>
<path d="M91.9381 16.4458C91.9381 17.1158 91.548 17.4814 90.8884 17.4814H74.2443C74.6941 20.6795 77.2433 21.7456 81.6216 21.7456C84.7407 21.7456 86.8397 21.2887 88.4293 20.3445C88.789 20.1313 89.2389 20.0704 89.6888 20.3445L90.5885 20.9232C91.0383 21.1974 91.0982 21.6238 90.7085 21.9893C89.059 23.5427 85.8502 24.426 81.6216 24.426C74.334 24.426 71.2452 21.441 71.2452 16.4458C71.2452 11.4809 74.1844 8.49597 81.6216 8.49597C88.9988 8.49597 91.9381 11.7551 91.9381 16.4458ZM74.2742 15.2274H88.9689C88.4891 12.212 86.06 11.1763 81.6216 11.1763C77.1831 11.1763 74.754 12.212 74.2742 15.2274Z" fill="white"/>
<path d="M106.296 8.52649C112.954 8.52649 115.323 11.1764 115.323 16.2021V23.4514C115.323 23.9387 115.053 24.2128 114.573 24.2128H113.133C112.654 24.2128 112.384 23.9387 112.384 23.4514V16.2021C112.384 12.3643 110.254 11.2069 105.636 11.2069C100.538 11.2069 97.7189 12.8212 97.7189 16.2021V23.4514C97.7189 23.9387 97.4489 24.2128 96.9691 24.2128H95.5298C95.05 24.2128 94.78 23.9387 94.78 23.4514V9.50117C94.78 9.01383 95.05 8.73971 95.5298 8.73971H96.9691C97.4489 8.73971 97.7189 9.01383 97.7189 9.50117V11.1764C99.3082 9.53164 102.067 8.52649 106.296 8.52649Z" fill="white"/>
<path d="M128.605 11.3896H124.557V20.1923C124.557 21.2888 125.067 21.6543 126.027 21.6543C126.866 21.6543 127.406 21.5934 128.126 21.3802C128.606 21.2278 128.936 21.3802 129.055 21.898L129.235 22.7508C129.325 23.1772 129.205 23.5427 128.786 23.7255C127.646 24.2128 126.506 24.3651 125.037 24.3651C122.878 24.3651 121.618 23.2686 121.618 20.9537V11.3896H118.169C117.689 11.3896 117.419 11.1155 117.419 10.6282V9.50118C117.419 9.01384 117.689 8.73972 118.169 8.73972H121.618V3.65306C121.618 3.16573 121.888 2.8916 122.368 2.8916H123.807C124.287 2.8916 124.557 3.16573 124.557 3.65306V8.73972H128.605C129.085 8.73972 129.355 9.01384 129.355 9.50118V10.6282C129.355 11.1155 129.085 11.3896 128.605 11.3896Z" fill="white"/>
<path d="M154.374 8.73975C154.973 8.73975 155.183 9.13571 154.823 9.65352L145.137 23.5732C145.107 23.6037 145.107 23.6341 145.077 23.6341L141.058 29.5127C140.849 29.8478 140.549 30.0001 140.159 30.0001H138.389C137.79 30.0001 137.55 29.6041 137.909 29.0863L141.388 24.0606C141.178 23.9387 141.028 23.7864 140.878 23.5732L131.192 9.65352C130.832 9.13571 131.042 8.73975 131.641 8.73975H133.471C133.861 8.73975 134.131 8.86159 134.371 9.19661L143.008 21.6543L151.644 9.19661C151.885 8.86159 152.154 8.73975 152.544 8.73975H154.374Z" fill="white"/>
<path d="M36.7674 13.7349C36.7674 13.7647 36.7674 13.7944 36.7671 13.8236C36.7465 17.1412 35.5605 20.334 33.4228 22.8217C33.0551 23.2504 32.657 23.6594 32.2397 24.0371C29.8191 26.231 26.7126 27.4485 23.4837 27.4694C23.4553 27.4699 23.4264 27.4699 23.3974 27.4699C23.3685 27.4699 23.338 27.4694 23.308 27.4694C21.5024 27.4203 20.0548 25.9019 20.0548 24.0365C20.0548 22.1712 21.5507 20.6027 23.3974 20.6027C25.0923 20.6027 26.6405 19.9548 27.8185 18.886C28.0288 18.6961 28.2263 18.4932 28.4111 18.2773C29.451 17.0671 30.0822 15.4777 30.0822 13.7354C30.0822 11.9932 29.451 10.4038 28.4111 9.19366C28.2263 8.9777 28.0288 8.77478 27.8185 8.58492C26.6405 7.51612 25.0923 6.86827 23.3974 6.86827C21.7025 6.86827 20.1543 7.51612 18.9763 8.58492C18.7661 8.77428 18.5675 8.9777 18.3837 9.19366C17.3433 10.4038 16.7127 11.9932 16.7127 13.7354C16.7127 15.6316 15.2158 17.1693 13.37 17.1693C11.5243 17.1693 10.0756 15.6811 10.0284 13.8273C10.0284 13.7965 10.0279 13.7662 10.0279 13.7354C10.0279 13.7047 10.0279 13.676 10.0284 13.6468C10.0746 11.7919 11.5527 10.3016 13.37 10.3016C15.065 10.3016 16.6131 9.65375 17.7911 8.58492C18.0014 8.39505 18.1989 8.19213 18.3837 7.97617C19.4236 6.76601 20.0548 5.17663 20.0548 3.43439C20.0548 1.56749 21.505 0.0479895 23.3111 0.000521628C23.3395 0 23.3685 0 23.3974 0C23.4264 0 23.4553 0 23.4837 0.000521628C26.7126 0.020865 29.8186 1.23886 32.2397 3.43282C32.657 3.81047 33.0551 4.21945 33.4228 4.64823C34.5013 5.90274 35.3376 7.3372 35.9042 8.87653C36.4607 10.3887 36.7566 12.0021 36.7663 13.6463C36.7671 13.6755 36.7674 13.7052 36.7674 13.7349Z" fill="#195EE6"/>
<path d="M26.7401 13.7349C26.7401 13.7647 26.7401 13.7944 26.7396 13.8236C26.6933 15.6785 25.2147 17.1688 23.3979 17.1688C21.702 17.1688 20.1548 17.8167 18.9768 18.8855C18.7666 19.0748 18.568 19.2782 18.3842 19.4942C17.3438 20.7044 16.7132 22.2938 16.7132 24.036C16.7132 25.9024 15.2625 27.4219 13.4568 27.4688C13.4284 27.4694 13.3995 27.4694 13.3705 27.4694C13.3416 27.4694 13.3127 27.4694 13.2842 27.4688C10.0568 27.448 6.95186 26.2321 4.53234 24.0396C4.11139 23.6599 3.70926 23.2468 3.33959 22.8144C1.20493 20.3283 0.0208185 17.1391 0.000507769 13.8236C0 13.7944 0 13.7647 0 13.7349C0 13.7052 0 13.6755 0.000507769 13.6463C0.0203107 10.3308 1.20443 7.14105 3.33857 4.65553C3.70821 4.2231 4.11038 3.80996 4.5313 3.43021C6.95186 1.23782 10.0563 0.0213867 13.2837 0.000521628C13.3122 0 13.3411 0 13.37 0C13.399 0 13.4294 0.000521628 13.4594 0.000521628C15.2645 0.0495546 16.7127 1.56801 16.7127 3.43334C16.7127 5.29869 15.2158 6.86722 13.37 6.86722C11.6741 6.86722 10.1269 7.51507 8.94891 8.58387C8.73868 8.77323 8.54014 8.97665 8.35634 9.19261C7.31593 10.4028 6.68526 11.9922 6.68526 13.7344C6.68526 15.4766 7.31593 17.0661 8.35634 18.2762C8.54064 18.4922 8.73868 18.6961 8.94891 18.885C10.1269 19.9538 11.6741 20.6016 13.37 20.6016C15.066 20.6016 16.6132 19.9538 17.7912 18.885C18.0014 18.6951 18.1989 18.4922 18.3837 18.2762C19.4236 17.0661 20.0548 15.4766 20.0548 13.7344C20.0548 11.8383 21.5507 10.3006 23.3974 10.3006C25.2442 10.3006 26.6918 11.7888 26.739 13.6426C26.739 13.6734 26.7396 13.7036 26.7396 13.7344L26.7401 13.7349Z" fill="url(#paint0_linear_1140_4504)"/>
<path d="M26.7401 13.7349C26.7401 13.7647 26.7401 13.7944 26.7396 13.8236C26.6933 15.6785 25.2147 17.1688 23.3979 17.1688C21.702 17.1688 20.1548 17.8167 18.9768 18.8855C18.7666 19.0748 18.568 19.2782 18.3842 19.4942C17.3438 20.7044 16.7132 22.2938 16.7132 24.036C16.7132 25.9024 15.2625 27.4219 13.4568 27.4688C13.4284 27.4694 13.3995 27.4694 13.3705 27.4694C13.3416 27.4694 13.3127 27.4694 13.2842 27.4688C10.0568 27.448 6.95186 26.2321 4.53234 24.0396C4.11139 23.6599 3.70926 23.2468 3.33959 22.8144C1.20493 20.3283 0.0208185 17.1391 0.000507769 13.8236C0 13.7944 0 13.7647 0 13.7349C0 13.7052 0 13.6755 0.000507769 13.6463C0.0203107 10.3308 1.20443 7.14105 3.33857 4.65553C3.70821 4.2231 4.11038 3.80996 4.5313 3.43021C6.95186 1.23782 10.0563 0.0213867 13.2837 0.000521628C13.3122 0 13.3411 0 13.37 0C13.399 0 13.4294 0.000521628 13.4594 0.000521628C15.2645 0.0495546 16.7127 1.56801 16.7127 3.43334C16.7127 5.29869 15.2158 6.86722 13.37 6.86722C11.6741 6.86722 10.1269 7.51507 8.94891 8.58387C8.73868 8.77323 8.54014 8.97665 8.35634 9.19261C7.31593 10.4028 6.68526 11.9922 6.68526 13.7344C6.68526 15.4766 7.31593 17.0661 8.35634 18.2762C8.54064 18.4922 8.73868 18.6961 8.94891 18.885C10.1269 19.9538 11.6741 20.6016 13.37 20.6016C15.066 20.6016 16.6132 19.9538 17.7912 18.885C18.0014 18.6951 18.1989 18.4922 18.3837 18.2762C19.4236 17.0661 20.0548 15.4766 20.0548 13.7344C20.0548 11.8383 21.5507 10.3006 23.3974 10.3006C25.2442 10.3006 26.6918 11.7888 26.739 13.6426C26.739 13.6734 26.7396 13.7036 26.7396 13.7344L26.7401 13.7349Z" fill="#538DFF"/>
</g>
<defs>
<linearGradient id="paint0_linear_1140_4504" x1="13.2604" y1="5.95182" x2="25.7396" y2="15.8694" gradientUnits="userSpaceOnUse">
<stop stop-color="#195EE6"/>
<stop offset="1" stop-color="#75A4FF"/>
</linearGradient>
<clipPath id="clip0_1140_4504">
<rect width="155" height="30" fill="white"/>
</clipPath>
</defs>
</svg>
