<svg width="32" height="32" viewBox="0 0 32 32" fill="none" xmlns="http://www.w3.org/2000/svg">
<rect width="32" height="32" rx="16" fill="#195EE6" fill-opacity="0.05"/>
<path d="M20.168 8.91602H11.8346C9.33464 8.91602 7.66797 10.166 7.66797 13.0827V18.916C7.66797 21.8327 9.33464 23.0827 11.8346 23.0827H20.168C22.668 23.0827 24.3346 21.8327 24.3346 18.916V13.0827C24.3346 10.166 22.668 8.91602 20.168 8.91602ZM20.5596 13.991L17.9513 16.0743C17.4013 16.516 16.7013 16.7327 16.0013 16.7327C15.3013 16.7327 14.593 16.516 14.0513 16.0743L11.443 13.991C11.1763 13.7743 11.1346 13.3743 11.343 13.1077C11.5596 12.841 11.9513 12.791 12.218 13.0077L14.8263 15.091C15.4596 15.5993 16.5346 15.5993 17.168 15.091L19.7763 13.0077C20.043 12.791 20.443 12.8327 20.6513 13.1077C20.868 13.3743 20.8263 13.7743 20.5596 13.991Z" fill="#195EE6"/>
</svg>
