<svg width="20" height="20" viewBox="0 0 20 20" fill="none" xmlns="http://www.w3.org/2000/svg">
<path d="M14.168 2.9165H5.83464C3.33464 2.9165 1.66797 4.1665 1.66797 7.08317V12.9165C1.66797 15.8332 3.33464 17.0832 5.83464 17.0832H14.168C16.668 17.0832 18.3346 15.8332 18.3346 12.9165V7.08317C18.3346 4.1665 16.668 2.9165 14.168 2.9165ZM14.5596 7.9915L11.9513 10.0748C11.4013 10.5165 10.7013 10.7332 10.0013 10.7332C9.3013 10.7332 8.59297 10.5165 8.0513 10.0748L5.44297 7.9915C5.1763 7.77484 5.13464 7.37484 5.34297 7.10817C5.55964 6.8415 5.9513 6.7915 6.21797 7.00817L8.8263 9.0915C9.45964 9.59984 10.5346 9.59984 11.168 9.0915L13.7763 7.00817C14.043 6.7915 14.443 6.83317 14.6513 7.10817C14.868 7.37484 14.8263 7.77484 14.5596 7.9915Z" fill="#141414"/>
</svg>
