<svg width="48" height="48" viewBox="0 0 48 48" fill="none" xmlns="http://www.w3.org/2000/svg">
<rect width="48" height="48" rx="10" fill="#195EE6" fill-opacity="0.05"/>
<path d="M25.7299 15.51L27.4899 19.03C27.7299 19.52 28.3699 19.99 28.9099 20.08L32.0999 20.61C34.1399 20.95 34.6199 22.43 33.1499 23.89L30.6699 26.37C30.2499 26.79 30.0199 27.6 30.1499 28.18L30.8599 31.25C31.4199 33.68 30.1299 34.62 27.9799 33.35L24.9899 31.58C24.4499 31.26 23.5599 31.26 23.0099 31.58L20.0199 33.35C17.8799 34.62 16.5799 33.67 17.1399 31.25L17.8499 28.18C17.9799 27.6 17.7499 26.79 17.3299 26.37L14.8499 23.89C13.3899 22.43 13.8599 20.95 15.8999 20.61L19.0899 20.08C19.6199 19.99 20.2599 19.52 20.4999 19.03L22.2599 15.51C23.2199 13.6 24.7799 13.6 25.7299 15.51Z" fill="#195EE6" fill-opacity="0.3"/>
</svg>
