<svg width="32" height="32" viewBox="0 0 32 32" fill="none" xmlns="http://www.w3.org/2000/svg">
<path d="M16 32C7.16344 32 0 24.8366 0 16C0 7.16344 7.16344 0 16 0C24.8366 0 32 7.16344 32 16C32 24.8366 24.8366 32 16 32Z" fill="#195EE6" fill-opacity="0.05"/>
<path d="M13.3389 19.2548L13.0666 23.3333C13.4666 23.3333 13.6434 23.1504 13.8666 22.9333L15.7884 21.0646L19.7866 24.0185C20.5224 24.4245 21.0535 24.2143 21.2368 23.3354L23.8614 10.967C24.1301 9.88963 23.4507 9.40099 22.7468 9.72056L7.33484 15.6634C6.28283 16.0853 6.28896 16.6722 7.14308 16.9338L11.0981 18.1682L20.2545 12.3915C20.6868 12.1294 21.0835 12.2703 20.7579 12.5593L13.3386 19.2547L13.3389 19.2548Z" fill="#195EE6"/>
</svg>
