<svg width="21" height="20" viewBox="0 0 21 20" fill="none" xmlns="http://www.w3.org/2000/svg">
<path d="M9.64083 6.043H11.3568V15H9.64083V6.043ZM5.61083 5.25H15.3868V6.758H5.61083V5.25Z" fill="white"/>
<path d="M13.8346 18.9583H7.16797C2.64297 18.9583 1.54297 17.8583 1.54297 13.3333V5.83329C1.54297 1.30829 2.64297 1.04163 7.16797 1.04163H13.8346C18.3596 1.04163 19.4596 1.30829 19.4596 5.83329V13.3333C19.4596 17.8583 18.3596 18.9583 13.8346 18.9583ZM7.16797 2.29163C3.3263 2.29163 2.79297 1.99163 2.79297 5.83329V13.3333C2.79297 17.175 3.3263 17.7083 7.16797 17.7083H13.8346C17.6763 17.7083 18.2096 17.175 18.2096 13.3333V5.83329C18.2096 1.99163 17.6763 2.29163 13.8346 2.29163H7.16797Z" fill="white"/>
</svg>
