<svg width="21" height="20" viewBox="0 0 21 20" fill="none" xmlns="http://www.w3.org/2000/svg">
<path d="M13.8327 18.9583H7.16602C2.64102 18.9583 1.54102 17.8583 1.54102 13.3333V5.83329C1.54102 1.30829 2.64102 1.04163 7.16602 1.04163H13.8327C18.3577 1.04163 19.4577 1.30829 19.4577 5.83329V13.3333C19.4577 17.8583 18.3577 18.9583 13.8327 18.9583ZM7.16602 2.29163C3.32435 2.29163 2.79102 1.99163 2.79102 5.83329V13.3333C2.79102 17.175 3.32435 17.7083 7.16602 17.7083H13.8327C17.6743 17.7083 18.2077 17.175 18.2077 13.3333V5.83329C18.2077 1.99163 17.6743 2.29163 13.8327 2.29163H7.16602Z" fill="white"/>
<path d="M9.46602 13.6416C9.11602 13.6416 8.79102 13.5583 8.49935 13.3916C7.83268 13.0083 7.44935 12.225 7.44935 11.2333V8.76663C7.44935 7.78329 7.83268 6.99163 8.49935 6.60829C9.16602 6.22496 10.0327 6.28329 10.891 6.78329L13.0327 8.01663C13.8827 8.50829 14.3743 9.23329 14.3743 9.99996C14.3743 10.7666 13.8827 11.4916 13.0327 11.9833L10.891 13.2166C10.4077 13.5 9.91602 13.6416 9.46602 13.6416ZM9.47435 7.60829C9.34102 7.60829 9.22435 7.63329 9.13268 7.69163C8.86601 7.84996 8.70768 8.24163 8.70768 8.76663V11.2333C8.70768 11.7583 8.85768 12.15 9.13268 12.3083C9.39935 12.4666 9.81602 12.4 10.2743 12.1333L12.416 10.9C12.8743 10.6333 13.1327 10.3083 13.1327 9.99996C13.1327 9.69163 12.8743 9.35829 12.416 9.09996L10.2743 7.86663C9.97435 7.69163 9.69935 7.60829 9.47435 7.60829Z" fill="white"/>
</svg>
