<svg width="32" height="32" viewBox="0 0 32 32" fill="none" xmlns="http://www.w3.org/2000/svg">
<path d="M0 16C0 7.16344 7.16344 0 16 0C24.8366 0 32 7.16344 32 16C32 24.8366 24.8366 32 16 32C7.16344 32 0 24.8366 0 16Z" fill="#195EE6" fill-opacity="0.05"/>
<path d="M16.8369 21.2507C16.8369 21.2507 17.1449 21.2171 17.3026 21.0508C17.4471 20.8984 17.442 20.6108 17.442 20.6108C17.442 20.6108 17.4228 19.2679 18.0581 19.0696C18.6841 18.8746 19.488 20.3683 20.3411 20.9426C20.9855 21.3769 21.4746 21.2819 21.4746 21.2819L23.7543 21.2507C23.7543 21.2507 24.9463 21.1786 24.3812 20.2585C24.3344 20.1831 24.0514 19.5776 22.6867 18.3338C21.2568 17.0318 21.4488 17.2424 23.17 14.9899C24.2184 13.6183 24.6374 12.7809 24.5064 12.4228C24.382 12.0803 23.6107 12.1713 23.6107 12.1713L21.0447 12.1869C21.0447 12.1869 20.8544 12.1615 20.7134 12.2442C20.5756 12.3253 20.4863 12.5146 20.4863 12.5146C20.4863 12.5146 20.0806 13.5757 19.5389 14.4786C18.3961 16.3829 17.9395 16.4836 17.7526 16.3656C17.3177 16.0895 17.4262 15.2579 17.4262 14.6671C17.4262 12.8211 17.7117 12.0517 16.8711 11.8526C16.5923 11.7862 16.3869 11.7428 15.6732 11.7354C14.7575 11.7264 13.9829 11.7387 13.5438 11.9492C13.2517 12.0894 13.0263 12.4024 13.164 12.4204C13.3335 12.4425 13.7175 12.522 13.9211 12.794C14.1841 13.1455 14.1749 13.9338 14.1749 13.9338C14.1749 13.9338 14.326 16.1067 13.8218 16.3763C13.4762 16.5615 13.0021 16.1837 11.9829 14.4557C11.4612 13.5708 11.0672 12.5924 11.0672 12.5924C11.0672 12.5924 10.9912 12.4097 10.8552 12.3114C10.6907 12.1926 10.4612 12.1557 10.4612 12.1557L8.02293 12.1713C8.02293 12.1713 7.65649 12.1811 7.52209 12.3376C7.40273 12.4761 7.51291 12.7637 7.51291 12.7637C7.51291 12.7637 9.42194 17.1481 11.5839 19.358C13.5664 21.3835 15.8168 21.2507 15.8168 21.2507H16.8369Z" fill="#195EE6"/>
</svg>
