<svg xmlns="http://www.w3.org/2000/svg"  viewBox="0 0 128 128" width="128px" height="128px"><path fill="white" d="M 34 1 C 21.32 1 11 11.32 11 24 L 11 104 C 11 116.68 21.32 127 34 127 L 94 127 C 106.68 127 117 116.68 117 104 L 117 24 C 117 11.32 106.68 1 94 1 L 34 1 z M 34 7 L 94 7 C 103.37 7 111 14.63 111 24 L 111 104 C 111 113.37 103.37 121 94 121 L 34 121 C 24.63 121 17 113.37 17 104 L 17 24 C 17 14.63 24.63 7 34 7 z M 34 51 C 32.34 51 31 52.34 31 54 C 31 55.66 32.34 57 34 57 L 94 57 C 95.66 57 97 55.66 97 54 C 97 52.34 95.66 51 94 51 L 34 51 z M 34 71 C 32.34 71 31 72.34 31 74 C 31 75.66 32.34 77 34 77 L 94 77 C 95.66 77 97 75.66 97 74 C 97 72.34 95.66 71 94 71 L 34 71 z M 34 91 C 32.34 91 31 92.34 31 94 C 31 95.66 32.34 97 34 97 L 64 97 C 65.66 97 67 95.66 67 94 C 67 92.34 65.66 91 64 91 L 34 91 z"/></svg>