<svg width="24" height="24" viewBox="0 0 24 24" fill="none" xmlns="http://www.w3.org/2000/svg">
<path d="M12 16.25C9.37998 16.25 7.24998 14.12 7.24998 11.5V6C7.24998 3.38 9.37998 1.25 12 1.25C14.62 1.25 16.75 3.38 16.75 6V11.5C16.75 14.12 14.62 16.25 12 16.25ZM12 2.75C10.21 2.75 8.74998 4.21 8.74998 6V11.5C8.74998 13.29 10.21 14.75 12 14.75C13.79 14.75 15.25 13.29 15.25 11.5V6C15.25 4.21 13.79 2.75 12 2.75Z" fill="white"/>
<path d="M12 19.75C7.36998 19.75 3.59998 15.98 3.59998 11.35V9.65C3.59998 9.24 3.93998 8.9 4.34998 8.9C4.75998 8.9 5.09998 9.24 5.09998 9.65V11.35C5.09998 15.15 8.19998 18.25 12 18.25C15.8 18.25 18.9 15.15 18.9 11.35V9.65C18.9 9.24 19.24 8.9 19.65 8.9C20.06 8.9 20.4 9.24 20.4 9.65V11.35C20.4 15.98 16.63 19.75 12 19.75Z" fill="white"/>
<path d="M13.39 7.18C13.31 7.18 13.22 7.17 13.13 7.14C12.4 6.87 11.6 6.87 10.87 7.14C10.48 7.28 10.05 7.08 9.90998 6.69C9.76998 6.3 9.96998 5.87 10.36 5.73C11.42 5.35 12.59 5.35 13.65 5.73C14.04 5.87 14.24 6.3 14.1 6.69C13.98 6.99 13.69 7.18 13.39 7.18Z" fill="white"/>
<path d="M12.8 9.3C12.73 9.3 12.67 9.29 12.6 9.27C12.2 9.16 11.79 9.16 11.39 9.27C10.99 9.38 10.58 9.14 10.47 8.74C10.36 8.35 10.6 7.94 11 7.83C11.65 7.65 12.35 7.65 13 7.83C13.4 7.94 13.64 8.35 13.53 8.75C13.44 9.08 13.13 9.3 12.8 9.3Z" fill="white"/>
<path d="M12 22.75C11.59 22.75 11.25 22.41 11.25 22V19C11.25 18.59 11.59 18.25 12 18.25C12.41 18.25 12.75 18.59 12.75 19V22C12.75 22.41 12.41 22.75 12 22.75Z" fill="white"/>
</svg>
