<svg width="64" height="64" viewBox="0 0 64 64" fill="none" xmlns="http://www.w3.org/2000/svg">
<path fill-rule="evenodd" clip-rule="evenodd" d="M39.9057 15.5859C44.0598 17.4299 45.6997 22.4675 43.4272 26.4035L32.1243 45.9807C30.0532 49.5679 25.4663 50.797 21.8791 48.7259C18.2919 46.6548 17.0629 42.0679 19.1339 38.4807L29.2589 20.9437C30.5706 18.6718 33.4757 17.8934 35.7476 19.2051C38.0194 20.5167 38.7978 23.4218 37.4862 25.6937L27.3612 43.2307C27.085 43.709 26.4734 43.8729 25.9951 43.5967C25.5169 43.3206 25.353 42.709 25.6291 42.2307L35.7541 24.6937C36.5135 23.3784 36.0629 21.6965 34.7476 20.9371C33.4322 20.1777 31.7504 20.6284 30.991 21.9437L20.866 39.4807C19.3472 42.1113 20.2485 45.4751 22.8791 46.9938C25.5097 48.5126 28.8735 47.6113 30.3923 44.9807L41.6951 25.4035C43.3735 22.4965 42.1623 18.7758 39.0942 17.4139L39.9057 15.5859Z" fill="white"/>
</svg>
